<svg width="127" height="22" viewBox="0 0 127 22" fill="none" xmlns="http://www.w3.org/2000/svg">
<path d="M10.7386 14.5909C10.0284 14.5909 9.38064 14.4176 8.79541 14.071C8.21587 13.7244 7.7528 13.2585 7.40621 12.6733C7.0653 12.0881 6.892 11.4432 6.88632 10.7386C6.88064 10.0284 7.05109 9.38352 7.39768 8.80398C7.74427 8.21875 8.21018 7.75284 8.79541 7.40625C9.38064 7.05966 10.0284 6.88636 10.7386 6.88636C11.4431 6.88636 12.088 7.05966 12.6733 7.40625C13.2585 7.75284 13.7244 8.21875 14.071 8.80398C14.4233 9.38352 14.5965 10.0284 14.5909 10.7386C14.5852 11.4432 14.409 12.0881 14.0625 12.6733C13.7159 13.2585 13.25 13.7244 12.6647 14.071C12.0852 14.4176 11.4431 14.5909 10.7386 14.5909ZM9.77552 5.18182V-2.38419e-07H11.7017V5.18182H9.77552ZM15.3409 7.5L13.9772 6.13636L17.659 2.45455L19.0227 3.81818L15.3409 7.5ZM16.2954 11.7017V9.77557H21.4772V11.7017H16.2954ZM17.659 19.0227L13.9772 15.3409L15.3409 13.9773L19.0227 17.6591L17.659 19.0227ZM9.77552 21.4773V16.2955H11.7017V21.4773H9.77552ZM3.81814 19.0227L2.4545 17.6591L6.13632 13.9773L7.49996 15.3409L3.81814 19.0227ZM-4.44055e-05 11.7017V9.77557H5.18177V11.7017H-4.44055e-05ZM6.13632 7.5L2.4545 3.81818L3.81814 2.45455L7.49996 6.13636L6.13632 7.5ZM40.3125 7.03125C40.2443 6.34375 39.9517 5.80966 39.4346 5.42898C38.9176 5.04829 38.2159 4.85795 37.3295 4.85795C36.7272 4.85795 36.2187 4.94318 35.8039 5.11364C35.3892 5.27841 35.071 5.50852 34.8494 5.80398C34.6335 6.09943 34.5255 6.43466 34.5255 6.80966C34.5142 7.12216 34.5795 7.39489 34.7215 7.62784C34.8693 7.8608 35.071 8.0625 35.3267 8.23295C35.5823 8.39773 35.8778 8.54261 36.213 8.66761C36.5483 8.78693 36.9062 8.8892 37.2869 8.97443L38.8551 9.34943C39.6164 9.51989 40.3153 9.74716 40.9517 10.0312C41.588 10.3153 42.1392 10.6648 42.6051 11.0795C43.071 11.4943 43.4318 11.983 43.6875 12.5455C43.9488 13.108 44.0823 13.7528 44.088 14.4801C44.0823 15.5483 43.8096 16.4744 43.2698 17.2585C42.7358 18.0369 41.963 18.642 40.9517 19.0739C39.946 19.5 38.7329 19.7131 37.3125 19.7131C35.9034 19.7131 34.6761 19.4972 33.6306 19.0653C32.5909 18.6335 31.7784 17.9943 31.1931 17.1477C30.6136 16.2955 30.3096 15.2415 30.2812 13.9858H33.8522C33.892 14.571 34.0596 15.0597 34.3551 15.4517C34.6562 15.8381 35.0568 16.1307 35.5568 16.3295C36.0625 16.5227 36.6335 16.6193 37.2698 16.6193C37.8948 16.6193 38.4375 16.5284 38.8977 16.3466C39.3636 16.1648 39.7244 15.9119 39.9801 15.5881C40.2358 15.2642 40.3636 14.892 40.3636 14.4716C40.3636 14.0795 40.2471 13.75 40.0142 13.483C39.7869 13.2159 39.4517 12.9886 39.0085 12.8011C38.571 12.6136 38.034 12.4432 37.3977 12.2898L35.4971 11.8125C34.0255 11.4545 32.8636 10.8949 32.0113 10.1335C31.159 9.37216 30.7358 8.34659 30.7414 7.05682C30.7358 6 31.017 5.0767 31.5852 4.28693C32.159 3.49716 32.946 2.88068 33.946 2.4375C34.946 1.99432 36.0823 1.77273 37.3551 1.77273C38.6505 1.77273 39.7812 1.99432 40.7471 2.4375C41.7187 2.88068 42.4744 3.49716 43.0142 4.28693C43.5539 5.0767 43.8323 5.99148 43.8494 7.03125H40.3125ZM54.9673 13.892V6.375H58.598V19.4659H55.1122V17.0881H54.9758C54.6804 17.8551 54.1889 18.4716 53.5014 18.9375C52.8196 19.4034 51.9872 19.6364 51.0042 19.6364C50.1292 19.6364 49.3593 19.4375 48.6946 19.0398C48.0298 18.642 47.5099 18.0767 47.1349 17.3438C46.7656 16.6108 46.5781 15.733 46.5724 14.7102V6.375H50.2031V14.0625C50.2088 14.8352 50.4161 15.446 50.8252 15.8949C51.2343 16.3438 51.7826 16.5682 52.4701 16.5682C52.9076 16.5682 53.3167 16.4688 53.6974 16.2699C54.0781 16.0653 54.3849 15.7642 54.6179 15.3665C54.8565 14.9687 54.973 14.4773 54.9673 13.892ZM65.2031 11.8977V19.4659H61.5724V6.375H65.0326V8.68466H65.186C65.4758 7.9233 65.9616 7.32102 66.6434 6.87784C67.3252 6.42898 68.1519 6.20455 69.1235 6.20455C70.0326 6.20455 70.8252 6.40341 71.5014 6.80114C72.1775 7.19886 72.7031 7.76705 73.0781 8.50568C73.4531 9.23864 73.6406 10.1136 73.6406 11.1307V19.4659H70.0099V11.7784C70.0156 10.9773 69.811 10.3523 69.3963 9.90341C68.9815 9.44886 68.4105 9.22159 67.6832 9.22159C67.1946 9.22159 66.7627 9.3267 66.3877 9.53693C66.0184 9.74716 65.7286 10.054 65.5184 10.4574C65.3139 10.8551 65.2088 11.3352 65.2031 11.8977ZM92.0411 8.12216H88.3082C88.24 7.6392 88.1008 7.21023 87.8906 6.83523C87.6804 6.45454 87.4105 6.13068 87.0809 5.86364C86.7514 5.59659 86.3707 5.39204 85.9389 5.25C85.5127 5.10795 85.0497 5.03693 84.5497 5.03693C83.6463 5.03693 82.8593 5.26136 82.1889 5.71023C81.5184 6.15341 80.9985 6.80114 80.6292 7.65341C80.2599 8.5 80.0752 9.52841 80.0752 10.7386C80.0752 11.983 80.2599 13.0284 80.6292 13.875C81.0042 14.7216 81.5269 15.3608 82.1974 15.7926C82.8679 16.2244 83.6434 16.4403 84.5241 16.4403C85.0184 16.4403 85.4758 16.375 85.8963 16.2443C86.3224 16.1136 86.7002 15.9233 87.0298 15.6733C87.3593 15.4176 87.6321 15.108 87.848 14.7443C88.0696 14.3807 88.223 13.9659 88.3082 13.5L92.0411 13.517C91.9446 14.3182 91.7031 15.0909 91.3167 15.8352C90.936 16.5739 90.4218 17.2358 89.7741 17.821C89.1321 18.4006 88.365 18.8608 87.473 19.2017C86.5866 19.5369 85.5838 19.7045 84.4644 19.7045C82.9076 19.7045 81.5156 19.3523 80.2883 18.6477C79.0667 17.9432 78.1008 16.9233 77.3906 15.5881C76.686 14.2528 76.3338 12.6364 76.3338 10.7386C76.3338 8.83523 76.6917 7.21591 77.4076 5.88068C78.1235 4.54545 79.0951 3.52841 80.3224 2.82955C81.5497 2.125 82.9304 1.77273 84.4644 1.77273C85.4758 1.77273 86.4133 1.91477 87.2769 2.19886C88.1463 2.48295 88.9161 2.89773 89.5866 3.44318C90.2571 3.98295 90.8025 4.64489 91.223 5.42898C91.6491 6.21307 91.9218 7.1108 92.0411 8.12216ZM98.4225 19.7131C97.5873 19.7131 96.843 19.5682 96.1896 19.2784C95.5362 18.983 95.0191 18.5483 94.6384 17.9744C94.2634 17.3949 94.0759 16.6733 94.0759 15.8097C94.0759 15.0824 94.2095 14.4716 94.4765 13.9773C94.7436 13.483 95.1072 13.0852 95.5674 12.7841C96.0277 12.483 96.5504 12.2557 97.1356 12.1023C97.7265 11.9489 98.3458 11.8409 98.9936 11.7784C99.7549 11.6989 100.369 11.625 100.834 11.5568C101.3 11.483 101.638 11.375 101.849 11.233C102.059 11.0909 102.164 10.8807 102.164 10.6023V10.5511C102.164 10.0114 101.994 9.59375 101.653 9.2983C101.317 9.00284 100.84 8.85511 100.221 8.85511C99.5674 8.85511 99.0475 9 98.6612 9.28977C98.2748 9.57386 98.0191 9.93182 97.8941 10.3636L94.5362 10.0909C94.7066 9.29545 95.0419 8.60795 95.5419 8.02841C96.0419 7.44318 96.6867 6.99432 97.4765 6.68182C98.272 6.36364 99.1924 6.20455 100.238 6.20455C100.965 6.20455 101.661 6.28977 102.326 6.46023C102.996 6.63068 103.59 6.89489 104.107 7.25284C104.63 7.6108 105.042 8.07102 105.343 8.63352C105.644 9.19034 105.795 9.85795 105.795 10.6364V19.4659H102.352V17.6506H102.249C102.039 18.0597 101.758 18.4205 101.405 18.733C101.053 19.0398 100.63 19.2813 100.136 19.4574C99.6413 19.6278 99.0703 19.7131 98.4225 19.7131ZM99.4623 17.2074C99.9964 17.2074 100.468 17.1023 100.877 16.892C101.286 16.6761 101.607 16.3864 101.84 16.0227C102.073 15.6591 102.19 15.2472 102.19 14.7869V13.3977C102.076 13.4716 101.92 13.5398 101.721 13.6023C101.528 13.6591 101.309 13.7131 101.065 13.7642C100.82 13.8097 100.576 13.8523 100.332 13.892C100.087 13.9261 99.8657 13.9574 99.6669 13.9858C99.2407 14.0483 98.8686 14.1477 98.5504 14.2841C98.2322 14.4205 97.985 14.6051 97.8089 14.8381C97.6328 15.0653 97.5447 15.3494 97.5447 15.6903C97.5447 16.1847 97.7237 16.5625 98.0816 16.8239C98.4453 17.0795 98.9055 17.2074 99.4623 17.2074ZM108.682 19.4659V6.375H112.202V8.65909H112.338C112.577 7.84659 112.977 7.23295 113.54 6.81818C114.102 6.39773 114.75 6.1875 115.483 6.1875C115.665 6.1875 115.861 6.19886 116.071 6.22159C116.281 6.24432 116.466 6.27557 116.625 6.31534V9.53693C116.455 9.4858 116.219 9.44034 115.918 9.40057C115.616 9.3608 115.341 9.34091 115.091 9.34091C114.557 9.34091 114.08 9.45739 113.659 9.69034C113.244 9.91761 112.915 10.2358 112.67 10.6449C112.432 11.054 112.312 11.5256 112.312 12.0597V19.4659H108.682ZM126.192 6.375V9.10227H118.308V6.375H126.192ZM120.098 3.23864H123.729V15.4432C123.729 15.7784 123.78 16.0398 123.882 16.2273C123.984 16.4091 124.126 16.5369 124.308 16.6108C124.496 16.6847 124.712 16.7216 124.956 16.7216C125.126 16.7216 125.297 16.7074 125.467 16.679C125.638 16.6449 125.768 16.6193 125.859 16.6023L126.43 19.304C126.249 19.3608 125.993 19.4261 125.663 19.5C125.334 19.5795 124.933 19.6278 124.462 19.6449C123.587 19.679 122.82 19.5625 122.16 19.2955C121.507 19.0284 120.999 18.6136 120.635 18.0511C120.271 17.4886 120.092 16.7784 120.098 15.9205V3.23864Z" fill="url(#paint0_linear_1_8)"/>
<defs>
<linearGradient id="paint0_linear_1_8" x1="-2.07959" y1="10.4659" x2="127.92" y2="10.4659" gradientUnits="userSpaceOnUse">
<stop stop-color="#FF6900"/>
<stop offset="1" stop-color="#F0B100"/>
</linearGradient>
</defs>
</svg>
